<svg xmlns="http://www.w3.org/2000/svg" viewBox="0 0 64 64">
  <rect width="64" height="64" rx="16" fill="#16a34a" />
  <g transform="rotate(-8 32 34)">
    <rect x="14" y="22" width="36" height="22" rx="3" fill="#ecfdf5" stroke="#bbf7d0" stroke-width="1" />
    <rect x="17" y="25" width="30" height="16" rx="2" fill="none" stroke="#86efac" stroke-width="0.8" />
    <circle cx="32" cy="33" r="6" fill="#bbf7d0" />
    <text x="32" y="36.5" font-size="8" font-family="Georgia, serif" font-weight="bold" fill="#15803d" text-anchor="middle">R$</text>
    <circle cx="21" cy="28" r="1.6" fill="#86efac" />
    <circle cx="43" cy="38" r="1.6" fill="#86efac" />
  </g>
  <path d="M46 14 l1.4 3.6 3.6 1.4 -3.6 1.4 -1.4 3.6 -1.4 -3.6 -3.6 -1.4 3.6 -1.4 z" fill="#fef9c3" />
  <path d="M52 30 l0.9 2.3 2.3 0.9 -2.3 0.9 -0.9 2.3 -0.9 -2.3 -2.3 -0.9 2.3 -0.9 z" fill="#fef08a" />
  <path d="M15 16 l0.7 1.8 1.8 0.7 -1.8 0.7 -0.7 1.8 -0.7 -1.8 -1.8 -0.7 1.8 -0.7 z" fill="#fef9c3" />
</svg>
